# xmcd
#
# Track frame offsets: 
#        150
#        15730
#        26114
#        35192
#        45387
#        58694
#        79189
#        98540
#        107278
#        125447
#        137825
#        148640
#        159987
#        175755
#
# Disc length: 2582 seconds
#
# Revision: 0
# Processed by: cddbd v1.5.2PL0 Copyright (c) Steve Scherf et al.
# Submitted via: ExactAudioCopy v0.99pb5
#
DISCID=b10a140e
DTITLE=Bona Fide and Friends - Songs of the Snake River Country
DYEAR=2006
DGENRE=Bluegrass
TTITLE0=Thunder Mountain Line
TTITLE1=Queen of Diamonds
TTITLE2=Jump Creek Ramble
TTITLE3=My Mountain Home
TTITLE4=Blue Eyed Girl
TTITLE5=Sagebush Annie
TTITLE6=Yellow Pine
TTITLE7=Syringa
TTITLE8=Our Sweet Jennie
TTITLE9=Obediah Jump
TTITLE10=Bracken's Reel
TTITLE11=Uncle Dick
TTITLE12=Teri's Waltz
TTITLE13=Class Five
EXTD=
EXTT0=
EXTT1=
EXTT2=
EXTT3=
EXTT4=
EXTT5=
EXTT6=
EXTT7=
EXTT8=
EXTT9=
EXTT10=
EXTT11=
EXTT12=
EXTT13=
PLAYORDER=
